<?xml version="1.0" standalone="no"?>
<!DOCTYPE svg PUBLIC "-//W3C//DTD SVG 20010904//EN"
 "http://www.w3.org/TR/2001/REC-SVG-20010904/DTD/svg10.dtd">
<svg version="1.0" xmlns="http://www.w3.org/2000/svg"
 width="1231.000000pt" height="1231.000000pt" viewBox="0 0 1231.000000 1231.000000"
 preserveAspectRatio="xMidYMid meet">
<metadata>
Created by potrace 1.11, written by Peter Selinger 2001-2013
</metadata>
<g transform="translate(0.000000,1231.000000) scale(0.100000,-0.100000)"
fill="#000000" stroke="none">
<path d="M9184 11210 c4 -14 9 -68 13 -120 12 -195 -63 -341 -222 -435 -87
-51 -167 -73 -338 -90 -84 -9 -210 -25 -280 -35 -644 -98 -1185 -347 -1544
-711 -142 -145 -242 -285 -311 -440 -52 -115 -59 -104 74 -118 1010 -102 1938
-749 2413 -1681 192 -377 298 -747 343 -1200 20 -204 19 -3003 -1 -3075 -58
-206 -227 -368 -428 -410 -147 -31 -303 -12 -426 52 -95 50 -201 155 -245 246
-53 107 -62 170 -62 457 l0 255 -47 -55 c-84 -100 -297 -305 -403 -390 -545
-434 -1170 -638 -1885 -617 -564 17 -1042 166 -1490 463 -621 412 -1082 1068
-1271 1808 -74 290 -103 513 -111 841 -9 378 20 647 102 971 282 1114 1174
1998 2285 2268 116 28 328 66 369 66 14 0 31 4 38 8 6 4 19 55 28 112 64 413
263 863 529 1195 144 180 355 382 521 500 l69 50 -39 6 c-152 26 -424 42 -705
43 -657 0 -1157 -85 -1710 -291 -932 -347 -1667 -886 -2285 -1673 -363 -463
-676 -1085 -855 -1701 -236 -810 -236 -1898 0 -2708 307 -1055 897 -1927 1775
-2625 280 -223 673 -455 1059 -625 662 -294 1250 -415 2011 -415 661 0 1158
86 1716 295 927 348 1659 885 2274 1669 479 611 860 1487 969 2225 84 564 84
1096 0 1660 -93 634 -381 1358 -779 1960 -359 544 -916 1092 -1462 1438 l-102
64 82 16 c155 31 292 121 360 237 71 122 76 333 10 465 -29 59 -49 82 -39 45z"/>
<path d="M5940 8229 c-694 -71 -1288 -487 -1610 -1129 -97 -193 -158 -383
-201 -625 -27 -151 -37 -508 -20 -677 79 -760 514 -1400 1166 -1714 282 -135
551 -194 887 -194 336 0 603 58 876 190 206 99 356 205 520 364 184 179 304
347 421 586 111 226 179 462 212 735 16 129 16 461 0 590 -104 854 -613 1520
-1356 1775 -268 92 -601 129 -895 99z"/>
</g>
</svg>
